<?xml version="1.0" standalone="no"?><!DOCTYPE svg PUBLIC "-//W3C//DTD SVG 1.1//EN" "http://www.w3.org/Graphics/SVG/1.1/DTD/svg11.dtd"><svg t="1609756679768" class="icon" viewBox="0 0 1024 1024" version="1.1" xmlns="http://www.w3.org/2000/svg" p-id="4158" xmlns:xlink="http://www.w3.org/1999/xlink" width="200" height="200"><defs><style type="text/css"></style></defs><path d="M512 1024C229.224296 1024 0 794.775704 0 512S229.224296 0 512 0s512 229.224296 512 512-229.224296 512-512 512z m0-18.962963c272.308148 0 493.037037-220.728889 493.037037-493.037037S784.308148 18.962963 512 18.962963 18.962963 239.691852 18.962963 512s220.728889 493.037037 493.037037 493.037037z" fill="#8a8a8a" p-id="4159"></path><path d="M512 1005.037037c247.770074 0 452.873481-182.784 487.784296-420.864H949.854815c-364.676741 0-274.792296 108.278519-511.525926 108.278519-236.73363 0-362.68563-83.569778-409.827556-83.569778C73.481481 834.787556 272.858074 1005.037037 512 1005.037037z" fill="#8a8a8a" opacity=".54" p-id="4160"></path><path d="M512 1005.037037c226.797037 0 417.848889-153.144889 475.344593-361.66163-68.304593 25.865481-134.011259 14.430815-173.416297 14.430815-39.442963 0-172.676741-60.09363-316.852148-22.357333-191.525926 71.130074-169.813333 81.275259-263.111111 81.275259s-142.904889-19.588741-182.08237-27.211852C123.145481 874.097778 302.288593 1005.037037 512 1005.037037z" fill="#8a8a8a" opacity=".68" p-id="4161"></path><path d="M223.459556 582.940444c-15.113481 0-27.363556 11.908741-27.363556 26.339556 0 14.411852 12.250074 26.320593 27.363556 26.320593 15.132444 0 27.382519-11.908741 27.382518-26.320593 0.379259-14.430815-11.889778-26.339556-27.382518-26.339556z m104.827259-41.813333c-12.250074 0-21.978074 9.367704-21.978074 20.916148 0 11.529481 9.728 20.897185 21.997037 20.897185 12.231111 0 21.959111-9.367704 21.959111-20.897185 0-11.548444-9.728-20.916148-21.978074-20.916148z m-27.723852-241.967407c15.113481 0 27.363556-11.889778 27.363556-26.320593 0-14.411852-12.250074-26.320593-27.363556-26.320592-15.132444 0-27.382519 11.908741-27.382519 26.320592 0 14.791111 12.250074 26.320593 27.382519 26.320593z m490.249481 42.192592c12.250074 0 21.978074-9.367704 21.978075-20.916148 0-11.529481-9.728-20.916148-21.978075-20.916148s-21.978074 9.386667-21.978074 20.916148c-0.360296 11.548444 9.728 20.916148 21.997037 20.916148zM620.088889 393.993481c21.238519 0 38.551704-16.57363 38.551704-36.788148 0-20.176593-17.294222-36.769185-38.551704-36.769185-21.238519 0-38.551704 16.592593-38.551704 36.788148s17.294222 36.788148 38.551704 36.788148z m-159.573333-52.641185c-18.375111 0-33.147259 14.070519-33.14726 31.364741 0 17.313185 14.772148 31.383704 33.14726 31.744 18.375111 0 33.128296-14.070519 33.128296-31.744-0.360296-17.294222-15.113481-31.364741-33.128296-31.364741zM748.657778 626.574222c-25.6 0-46.117926 19.835259-46.117926 43.994074 0 24.519111 20.897185 43.994074 46.117926 43.994074 25.562074 0 46.098963-19.835259 46.098963-43.994074 0.379259-24.158815-20.536889-43.994074-46.098963-43.994074z m-189.11763 40.391111c-12.250074 0-21.997037 9.386667-21.997037 20.916148s9.746963 20.916148 21.997037 20.916149c12.250074 0 21.959111-9.386667 21.959111-20.916149 0-11.188148-10.069333-20.555852-21.959111-20.916148z m43.937185-82.56474c12.250074 0 21.978074 9.367704 21.978074 20.897185 0 11.548444-9.728 20.916148-21.978074 20.916148s-21.978074-9.367704-21.978074-20.916148c0-11.169185 9.728-20.897185 21.997037-20.897185z m103.025778 250.595555c-76.363852 0-129.687704-30.283852-133.271704-32.445629-220.823704-134.864593-358.779259-3.242667-364.904296 2.522074-8.647111 8.286815-22.33837 8.647111-30.985481 0.379259a20.48 20.48 0 0 1-1.441186-28.86163c0.360296-0.379259 0.720593-0.720593 0.720593-1.080889 1.801481-1.801481 168.220444-162.986667 420.02963-9.02637 4.664889 2.522074 124.965926 69.973333 259.337481-23.438222 4.683852-3.223704 10.808889-4.683852 16.57363-3.96326 5.764741 0.720593 10.808889 3.982222 14.411852 8.305778 7.205926 9.367704 5.044148 22.357333-4.683852 29.202963-64.113778 45.074963-124.984889 58.405926-175.786667 58.405926zM257.706667 434.024296h56.187259c31.345778 0 47.198815 13.349926 47.198815 40.391111s-15.853037 40.751407-47.559111 40.751408h-40.334223v56.244148h-15.853037v-137.386667h0.360297z m15.49274 13.710223v53.722074h39.253334c11.188148 0 19.095704-2.161778 24.500148-6.84563 5.044148-4.342519 7.926519-11.188148 7.926518-20.555852 0-9.386667-2.522074-15.872-7.926518-19.835259-5.404444-4.683852-13.330963-6.84563-24.500148-6.84563 0.379259 0.360296-39.253333 0.360296-39.253334 0.360297z m107.70963-13.710223v137.386667h15.834074v-109.264593h0.720593l47.559111 109.264593h14.032592l47.559112-109.264593h0.720592v109.264593h15.853037v-137.386667h-19.456l-50.782815 117.191111h-1.441185l-51.162074-117.191111h-19.437037z m215.04-2.88237c-13.691259 0-25.220741 4.683852-33.488593 13.710222-8.286815 9.007407-12.970667 21.257481-12.970666 36.788148h15.853037c0.360296-12.269037 3.223704-21.295407 8.286815-27.420444 5.025185-6.485333 12.231111-9.728 21.617777-9.728 8.988444 0 15.834074 2.161778 20.878223 6.826667 5.044148 4.702815 7.566222 10.827852 7.566222 19.493925 0 9.007407-3.602963 16.933926-10.42963 24.519112-3.602963 3.963259-10.808889 9.367704-21.617778 17.294222-14.791111 10.107259-24.500148 18.394074-29.904592 24.538074-9.367704 10.088296-13.691259 21.617778-13.691259 33.886815h91.496296v-14.070519h-72.059259c2.541037-9.367704 12.61037-19.816296 29.904592-31.364741 14.051556-9.728 23.779556-17.313185 28.463408-21.997037 9.007407-9.728 13.330963-20.555852 13.330963-32.445629 0-11.908741-4.323556-21.636741-12.250074-29.202963-7.926519-7.205926-18.014815-10.827852-30.985482-10.827852z m81.047704 117.191111a9.955556 9.955556 0 0 0-8.286815 3.602963 11.757037 11.757037 0 0 0-3.602963 8.305778 10.42963 10.42963 0 0 0 3.602963 8.286815c2.161778 2.161778 4.683852 3.602963 8.286815 3.602963a10.42963 10.42963 0 0 0 8.286815-3.602963 11.757037 11.757037 0 0 0 3.602963-8.286815 10.42963 10.42963 0 0 0-3.602963-8.305778 10.42963 10.42963 0 0 0-8.286815-3.602963z m45.757629-114.308741l-7.205926 75.719111h15.132445c2.522074-5.404444 6.826667-9.728 12.250074-12.250074 5.044148-2.88237 10.808889-4.323556 17.635556-4.323555 10.088296 0 18.014815 2.88237 23.419259 9.007407 5.764741 6.125037 9.007407 14.411852 9.007407 25.239704 0 9.746963-3.223704 17.673481-9.367704 23.798518-6.485333 6.125037-14.032593 9.386667-23.779555 9.386667-8.267852 0-15.473778-2.180741-20.878222-6.144-6.125037-4.683852-9.728-11.188148-10.448593-19.835259H713.007407c1.080889 12.629333 6.125037 22.376296 15.853037 29.942518 8.286815 6.485333 18.735407 9.728 30.966519 9.728 13.330963 0 24.860444-4.323556 34.228148-12.61037a44.259556 44.259556 0 0 0 14.772148-33.905778c0-14.791111-4.323556-26.320593-12.250074-34.967704-7.926519-8.305778-18.735407-12.269037-31.706074-12.269037-6.485333 0-12.231111 1.080889-17.635555 3.242667-5.764741 2.161778-10.808889 5.764741-14.791112 10.467556h-0.701629l4.683852-46.155852h66.996148v-14.070519h-80.687408z" fill="#8a8a8a" p-id="4162"></path></svg>