<?xml version="1.0" encoding="utf-8"?>
<!-- Generator: Adobe Illustrator 21.0.0, SVG Export Plug-In . SVG Version: 6.00 Build 0)  -->
<svg version="1.1" id="图层_1" xmlns="http://www.w3.org/2000/svg" xmlns:xlink="http://www.w3.org/1999/xlink" x="0px" y="0px"
	 viewBox="0 0 296.5 200" style="enable-background:new 0 0 296.5 200;" xml:space="preserve">
<style type="text/css">
	.st0{fill:#E25E1B;}
	.st1{fill:#DCE2E2;}
	.st2{fill:#FC7F1A;}
	.st3{fill:#D3EEE4;}
	.st4{fill:#18252F;}
	.st5{fill:#FF0606;}
</style>
<path class="st0" d="M72,91.8v77.7h-6.4v13.4h-7.7v13.7h-49L9.1,91.7h31.4L72,91.8z M58.9,153.6v-14.7H47.2v14.7L58.9,153.6z
	 M58.9,125.4v-14.7H47.2v14.7L58.9,125.4z M33.8,153.6v-14.7H22.1v14.7L33.8,153.6z M33.8,125.4v-14.7H22.1v14.7L33.8,125.4z
	 M287.6,91.7v104.9h-49v-13.7h-7.7v-13.7h-6.4V91.4L287.6,91.7z M274.2,153.6v-14.7h-11.7v14.7L274.2,153.6z M274.2,125.4v-14.7
	h-11.7v14.7L274.2,125.4z M249,153.6v-14.7h-11.7v14.7L249,153.6z M249,125.4v-14.7h-11.7v14.7L249,125.4z M230.9,56.6H65.7
	l82.5-53.2L230.9,56.6z M156.6,33.9c0-4.6-3.7-8.3-8.3-8.3c-4.6,0-8.3,3.7-8.3,8.3c0,4.6,3.7,8.3,8.3,8.3
	C152.8,42.2,156.6,38.5,156.6,33.9z"/>
<path class="st1" d="M91.4,85.4l-1.9,70h-5.8v13.9H72V150l0.1-58.2H72V71.5h11.7v13.9C83.7,85.4,91.4,85.4,91.4,85.4z M224.5,91.7
	v77.7h-11.8v-13.9h-5.8l-1.8-70h7.6V71.5h11.8V91.7z M189.2,85.4l-1.7,70.1h-5.9v13.9h-16v-46.1c-0.3-9.5-8.3-16.9-17.9-16.6
	c-9,0.3-16.3,7.6-16.6,16.6v46h-16v-13.9h-5.9l-1.7-70.1h7.6V71.5h66.4v13.9H189.2z"/>
<path class="st2" d="M165.5,166.2v3.2h-34.4v-46c0.3-9.5,8.3-16.9,17.9-16.6c9,0.3,16.3,7.6,16.6,16.6V166.2z"/>
<path class="st3" d="M238.5,183v13.6H57.9V183h7.6v0H238.5z M224.5,169.4h6.3V183H65.6v-13.6H72v0L224.5,169.4L224.5,169.4z
	 M212.8,155.4v13.9h-31.2v-13.9H212.8z M115,155.4v13.9H83.8v-13.9H115z M115,71.5v13.9H83.7V71.5H115z M212.7,71.5v13.9h-31.2V71.5
	H212.7z"/>
<path class="st4" d="M168.9,166.2h-6.9v-42.9c0-7.6-6.2-13.8-13.8-13.8s-13.8,6.2-13.8,13.8v42.9h-6.9v-42.9
	c0-11.4,9.2-20.6,20.6-20.6l0,0c11.4,0,20.6,9.2,20.6,20.6l0,0L168.9,166.2z M68.6,70.8h6.9v98.5h-6.9V70.8z M221.1,70.8h6.9v20.9
	h-6.9V70.8z M91.4,88.8h-7.7c-1.9,0-3.4-1.5-3.4-3.4V71.5h6.9V82h4.3V88.8z M115,88.8h-7.5V82h4.2V71.5h6.9v13.9
	c0,1.9-1.5,3.4-3.4,3.4C115,88.8,115,88.8,115,88.8z"/>
<path class="st4" d="M93,155.4l-6.9-0.2l1.9-70c0.1-1.8,1.6-3.3,3.5-3.3h16c1.9,0,3.4,1.5,3.4,3.3l1.9,70l-6.9,0.2l-1.8-66.7H95
	L93,155.4z"/>
<path class="st4" d="M118.4,169.4h-6.9v-10.5H87.2v10.5h-6.9v-13.9c0-1.9,1.5-3.4,3.4-3.4H115c1.9,0,3.4,1.5,3.4,3.4L118.4,169.4z
	 M201.7,85.4l6.9-0.2l1.8,70l-6.9,0.2L201.7,85.4z M183.9,155.3l1.9-70l6.9,0.2l-1.9,70L183.9,155.3z"/>
<path class="st4" d="M212.7,88.8h-31.2c-1.9,0-3.4-1.5-3.4-3.4V71.5h6.9V82h24.4V71.5h6.9v13.9C216.2,87.3,214.6,88.8,212.7,88.8
	L212.7,88.8z M216.2,169.4h-6.9v-10.5H185v10.5h-6.9v-13.9c0-1.9,1.5-3.4,3.4-3.4h31.2c1.9,0,3.4,1.5,3.4,3.4V169.4z"/>
<path class="st4" d="M230.9,74.9H65.7c-1.9,0-3.4-1.5-3.4-3.4V56.6c0-1.2,0.6-2.3,1.6-2.9l82.5-53.2c1.1-0.7,2.6-0.7,3.7,0
	l82.5,53.2c1,0.6,1.6,1.7,1.6,2.9v14.8C234.1,73.3,232.7,74.8,230.9,74.9L230.9,74.9z M69.2,68h158.1v-9.5l-79.1-51l-79.1,51
	L69.2,68z"/>
<path class="st4" d="M148.2,45.7c-6.5,0-11.7-5.3-11.7-11.8c0-6.5,5.3-11.7,11.8-11.7c6.5,0,11.7,5.2,11.7,11.7
	C160.1,40.4,154.8,45.7,148.2,45.7C148.3,45.7,148.3,45.7,148.2,45.7z M148.2,29.1c-2.7,0-4.9,2.2-4.9,4.9s2.2,4.9,4.9,4.9
	s4.9-2.2,4.9-4.9c0,0,0,0,0-0.1C153.2,31.2,151,29,148.2,29.1C148.3,29,148.3,29,148.2,29.1L148.2,29.1z M65.7,53.2h165.1v6.9H65.7
	V53.2z M0,88.3h72v6.9H0V88.3z M287.6,88.3h9v6.9h-9V88.3z M274.2,128.8h-11.7c-1.9,0-3.4-1.5-3.4-3.4v-14.7c0-1.9,1.5-3.4,3.4-3.4
	h11.7c1.9,0,3.4,1.5,3.4,3.4v14.7C277.6,127.3,276.1,128.8,274.2,128.8L274.2,128.8z M265.9,122h4.8v-7.8h-4.8V122z M274.2,157
	h-11.7c-1.9,0-3.4-1.5-3.4-3.4v-14.7c0-1.9,1.5-3.4,3.4-3.4h11.7c1.9,0,3.4,1.5,3.4,3.4v14.7C277.6,155.5,276.1,157,274.2,157
	L274.2,157z M265.9,150.2h4.8v-7.8h-4.8V150.2z M249,128.8h-11.7c-1.9,0-3.4-1.5-3.4-3.4v-14.7c0-1.9,1.5-3.4,3.4-3.4H249
	c1.9,0,3.4,1.5,3.4,3.4v14.7C252.4,127.3,250.9,128.8,249,128.8L249,128.8z M240.7,122h4.8v-7.8h-4.8V122z M249,157h-11.7
	c-1.9,0-3.4-1.5-3.4-3.4v-14.7c0-1.9,1.5-3.4,3.4-3.4H249c1.9,0,3.4,1.5,3.4,3.4v14.7C252.4,155.5,250.9,157,249,157L249,157z
	 M240.7,150.2h4.8v-7.8h-4.8V150.2z M58.9,128.8H47.2c-1.9,0-3.4-1.5-3.4-3.4v-14.7c0-1.9,1.5-3.4,3.4-3.4h11.7
	c1.9,0,3.4,1.5,3.4,3.4v14.7C62.3,127.3,60.8,128.8,58.9,128.8L58.9,128.8z M50.7,122h4.8v-7.8h-4.8V122z M58.9,157H47.2
	c-1.9,0-3.4-1.5-3.4-3.4v-14.7c0-1.9,1.5-3.4,3.4-3.4h11.7c1.9,0,3.4,1.5,3.4,3.4v14.7C62.3,155.5,60.8,157,58.9,157L58.9,157z
	 M50.7,150.2h4.8v-7.8h-4.8V150.2z M33.7,128.8H22.1c-1.9,0-3.4-1.5-3.4-3.4v-14.7c0-1.9,1.5-3.4,3.4-3.4h11.7
	c1.9,0,3.4,1.5,3.4,3.4v14.7C37.2,127.3,35.6,128.8,33.7,128.8L33.7,128.8z M25.5,122h4.8v-7.8h-4.8V122z M33.7,157H22.1
	c-1.9,0-3.4-1.5-3.4-3.4v-14.7c0-1.9,1.5-3.4,3.4-3.4h11.7c1.9,0,3.4,1.5,3.4,3.4v14.7C37.2,155.5,35.6,157,33.7,157L33.7,157z
	 M25.5,150.2h4.8v-7.8h-4.8V150.2z M69.1,182.9h-6.9v-13.5c0-1.9,1.5-3.4,3.4-3.5h158.9v6.9H69.1L69.1,182.9z"/>
<path class="st4" d="M238.5,200H57.9c-1.9,0-3.4-1.5-3.4-3.4v-13.7c0-1.9,1.5-3.4,3.4-3.5h172.9v6.9H61.4v6.7h177.2V200z"/>
<path class="st4" d="M57.9,200h-49c-1.9,0-3.4-1.5-3.4-3.4L5.6,91.8c-0.1-1.9,1.5-3.5,3.4-3.6c0.1,0,0.1,0,0.2,0h63
	c1.9,0.1,3.3,1.6,3.3,3.5v77.7c0,1.9-1.5,3.4-3.4,3.5h-3v9.9c0,1.9-1.5,3.4-3.4,3.5h-4.3v10.3C61.3,198.5,59.8,200,57.9,200
	C57.9,200,57.9,200,57.9,200L57.9,200z M12.3,193.1h42.2v-10.3c0-1.9,1.5-3.4,3.4-3.4h4.3v-10c0-1.9,1.5-3.4,3.4-3.4h3V95.1H12.4
	L12.3,193.1z M287.6,200h-49c-1.9,0-3.4-1.5-3.4-3.4v-10.1h-4.2c-1.9,0-3.4-1.5-3.4-3.4v-10.2h-2.9c-1.9,0-3.4-1.5-3.4-3.4V91.6
	c0-1.9,1.5-3.4,3.4-3.4h63c1.9,0,3.4,1.5,3.4,3.4v104.9C291,198.5,289.5,200,287.6,200z M241.9,193.1h42.3v-98H228V166h2.9
	c1.9,0,3.4,1.5,3.4,3.4v10.2h4.3c1.9,0,3.4,1.5,3.4,3.4L241.9,193.1z"/>
<circle class="st5" cx="148.5" cy="34" r="6.2"/>
</svg>
