<?xml version="1.0" standalone="no"?>
<!DOCTYPE svg PUBLIC "-//W3C//DTD SVG 1.1//EN" "http://www.w3.org/Graphics/SVG/1.1/DTD/svg11.dtd"><svg t="1609756207693"
    class="icon" viewBox="0 0 1024 1024" version="1.1" xmlns="http://www.w3.org/2000/svg" p-id="2364"
    xmlns:xlink="http://www.w3.org/1999/xlink" width="200" height="200">
    <path
        d="M480 784c0 132.548-107.452 240-240 240S0 916.548 0 784c0-85.49 44.699-160.54 112-203.054V128C112 57.308 169.308 0 240 0c70.692 0 128 57.308 128 128v452.946C435.301 623.46 480 698.51 480 784zM304 580.946V128c0-35.346-28.654-64-64-64-35.346 0-64 28.654-64 64v452.946a64 64 0 0 1-29.82 54.108C95.381 667.144 64 722.84 64 784c0 97.202 78.798 176 176 176s176-78.798 176-176c0-61.161-31.381-116.856-82.18-148.946A64 64 0 0 1 304 580.946z m-80 140.07V208c0-8.837 7.163-16 16-16s16 7.163 16 16v513.016c27.604 7.105 48 32.163 48 61.984 0 35.346-28.654 64-64 64-35.346 0-64-28.654-64-64 0-29.821 20.396-54.879 48-61.984zM784 1024c132.548 0 240-107.452 240-240 0-88.366-80-221.699-240-400-160 178.301-240 311.634-240 400 0 132.548 107.452 240 240 240z m125.12-373.346C943.691 708.27 960 753.467 960 784c0 97.202-78.798 176-176 176s-176-78.798-176-176c0-30.533 16.309-75.729 50.88-133.346 29.472-49.12 71.198-105.655 125.12-169.334 53.922 63.679 95.648 120.214 125.12 169.334z"
        fill="#17abe3" p-id="2365"></path>
    <path
        d="M784 879.03V879c47.568 0 87.055-34.597 94.673-80h0.45c0.985-7.893 7.718-14 15.877-14 8.16 0 14.892 6.107 15.876 14h0.134l-0.073 0.572c0.042 0.47 0.063 0.947 0.063 1.428 0 2.262-0.47 4.414-1.316 6.365C898.306 866.405 846.36 911 784 911v-0.03c-0.33 0.02-0.664 0.03-1 0.03-8.837 0-16-7.163-16-16s7.163-16 16-16c0.336 0 0.67 0.01 1 0.03z m-104.841-22.578l26.34-18.179a96.514 96.514 0 0 0 27.928 26.341l-18.232 26.34a128.696 128.696 0 0 1-36.036-34.502z m45 37.548c-8.837 0-16-7.163-16-16s7.163-16 16-16 16 7.163 16 16-7.163 16-16 16z m-32-30c-8.837 0-16-7.163-16-16s7.163-16 16-16 16 7.163 16 16-7.163 16-16 16z"
        fill="#17abe3" p-id="2366"></path>
</svg>