<?xml version="1.0" standalone="no"?><!DOCTYPE svg PUBLIC "-//W3C//DTD SVG 1.1//EN" "http://www.w3.org/Graphics/SVG/1.1/DTD/svg11.dtd"><svg t="1609756472772" class="icon" viewBox="0 0 1024 1024" version="1.1" xmlns="http://www.w3.org/2000/svg" p-id="3132" xmlns:xlink="http://www.w3.org/1999/xlink" width="200" height="200"><defs><style type="text/css"></style></defs><path d="M282.731641 0.000539a20.479989 20.479989 0 0 0-14.551572 5.928418L197.470212 76.692709H97.387738a20.587779 20.587779 0 0 0-20.587778 20.587779v100.028579L6.036207 267.965029a20.587779 20.587779 0 0 0 0 29.103143l28.887564 28.887564c31.797878 1.077894 61.92502 2.694735 90.920373 4.473261a163.300967 163.300967 0 0 1-7.868627-47.912396 164.702229 164.702229 0 0 1 329.458353 0c0 30.666089-8.892627 59.014706-23.498093 83.536798 24.090935 4.527156 45.810502 9.054311 64.67365 13.473677v-11.749046l70.817647-70.709858a20.587779 20.587779 0 0 0 0-29.103143L488.609427 197.309067V97.280488a20.587779 20.587779 0 0 0-20.587779-20.587779H367.993069L297.283212 5.928957a20.479989 20.479989 0 0 0-14.551571-5.928418z m576.511696 364.867176c-164.702229 0-329.458353 82.351115-329.458353 288.175007 0 47.103975 7.006312 83.752377 19.56378 112.532151-8.515364 19.617674-15.845044 38.91198-22.527989 57.990706a501.328578 501.328578 0 0 0-55.727128-91.243741c-7.922522-10.347784-16.168413-20.426095-24.791566-30.234932 0.700631-5.066103 1.131789-10.07831 1.131789-14.821045 0-171.492962-137.269822-240.047032-274.59354-240.047031H35.624402v102.938893c0 205.769997 137.215928 308.70889 240.154821 308.70889 20.749463 0 38.858085-3.557051 55.673234-8.515364-28.186933-41.283347-75.88375-102.399946-142.497609-156.402444a41.121663 41.121663 0 1 1 51.73892-63.973019c58.745232 47.589028 118.191096 104.232366 148.695501 133.658877 5.281681 6.305681 11.371783 12.341888 16.330096 18.755359 52.385657 68.33849 83.051746 143.521609 82.890062 241.071031V1024l41.175557-0.485052 41.229452 0.107789v-0.538947c-0.754526-61.278284 21.881252-163.516546 72.865646-265.539229 12.503572-25.007145 26.677881-50.014289 42.57682-74.590276 28.995353-41.391136 59.715337-83.10564 88.171743-111.723731a41.175557 41.175557 0 0 1 58.421864 58.098496c-68.122912 68.33849-115.873623 143.737188-145.084555 226.950617 15.090518 1.724631 30.989457 2.586946 47.750711 2.586946 123.526672 0 288.282796-123.526672 288.282796-370.526121V364.867715h-164.756124z" p-id="3133" fill="#7cba59"></path></svg>