<?xml version="1.0" standalone="no"?><!DOCTYPE svg PUBLIC "-//W3C//DTD SVG 1.1//EN" "http://www.w3.org/Graphics/SVG/1.1/DTD/svg11.dtd"><svg t="1609755928784" class="icon" viewBox="0 0 1024 1024" version="1.1" xmlns="http://www.w3.org/2000/svg" p-id="1080" xmlns:xlink="http://www.w3.org/1999/xlink" width="200" height="200"><defs><style type="text/css"></style></defs><path d="M419.8 379.42l-1.15 1.98c1.49-0.52 2.94-1.18 4.36-1.98h-3.21zM484 450.51h14.75l-18.03-31.23-11.34 19.64A21.43 21.43 0 0 1 484 450.51zM467.09 442.9l-4.39 7.61h16.34c-2.64-4.05-6.95-6.92-11.95-7.61z" fill="#FFFFFF" p-id="1081"></path><path d="M839.12 541.74v-59.48h118.95v59.48H839.12zM722.28 259.68l84.1-84.13 42.05 42.05-84.1 84.13-42.05-42.05zM512 749.9c-131.38 0-237.9-106.52-237.9-237.9S380.62 274.1 512 274.1 749.9 380.62 749.9 512 643.35 749.9 512 749.9z m0-416.72c-98.76 0-178.82 80.05-178.82 178.82S413.24 690.82 512 690.82 690.82 610.76 690.82 512 610.76 333.18 512 333.18zM482.26 65.93h59.48v118.95h-59.48V65.93zM175.55 217.59l42.05-42.05 84.1 84.13-42.05 42.05-84.1-84.13z m9.33 324.15H65.93v-59.48h118.95v59.48z m116.81 222.58l-84.1 84.1-42.05-42.05 84.1-84.13 42.05 42.08z m240.05 193.75h-59.48V839.12h59.48v118.95z m306.69-151.69l-42.05 42.05-84.1-84.13 42.05-42.05 84.1 84.13z m0 0" fill="#FFCC00" p-id="1082"></path></svg>