<?xml version="1.0" encoding="utf-8"?>
<!-- Generator: Adobe Illustrator 21.0.0, SVG Export Plug-In . SVG Version: 6.00 Build 0)  -->
<svg version="1.1" id="图层_1" xmlns="http://www.w3.org/2000/svg" xmlns:xlink="http://www.w3.org/1999/xlink" x="0px" y="0px"
	 viewBox="0 0 200 200" style="enable-background:new 0 0 200 200;" xml:space="preserve">
<style type="text/css">
	.st0{fill:#FF6B06;}
</style>
<path class="st0" d="M93.8,153.1c0,25.9-21,46.9-46.9,46.9S0,179,0,153.1c0-16.7,8.7-31.4,21.9-39.7V25c0-13.8,11.2-25,25-25
	s25,11.2,25,25v88.5C85,121.8,93.8,136.4,93.8,153.1z M59.4,113.5V25c0-6.9-5.6-12.5-12.5-12.5S34.4,18.1,34.4,25v88.5
	c0,4.3-2.2,8.3-5.8,10.6c-9.9,6.3-16.1,17.1-16.1,29.1c0,19,15.4,34.4,34.4,34.4s34.4-15.4,34.4-34.4c0-11.9-6.1-22.8-16.1-29.1
	C61.6,121.7,59.4,117.8,59.4,113.5z M43.8,140.8V40.6c0-1.7,1.4-3.1,3.1-3.1s3.1,1.4,3.1,3.1v100.2c5.4,1.4,9.4,6.3,9.4,12.1
	c0,6.9-5.6,12.5-12.5,12.5s-12.5-5.6-12.5-12.5C34.4,147.1,38.4,142.2,43.8,140.8z M153.1,200c25.9,0,46.9-21,46.9-46.9
	c0-17.3-15.6-43.3-46.9-78.1c-31.3,34.8-46.9,60.9-46.9,78.1C106.3,179,127.2,200,153.1,200z M177.6,127.1c6.8,11.3,9.9,20.1,9.9,26
	c0,19-15.4,34.4-34.4,34.4s-34.4-15.4-34.4-34.4c0-6,3.2-14.8,9.9-26c5.8-9.6,13.9-20.6,24.4-33.1
	C163.7,106.4,171.8,117.5,177.6,127.1z"/>
<path class="st0" d="M153.1,171.7L153.1,171.7c9.3,0,17-6.8,18.5-15.6h0.1c0.2-1.5,1.5-2.7,3.1-2.7c1.6,0,2.9,1.2,3.1,2.7h0l0,0.1
	c0,0.1,0,0.2,0,0.3c0,0.4-0.1,0.9-0.3,1.2c-2.2,11.5-12.4,20.2-24.5,20.2v0c-0.1,0-0.1,0-0.2,0c-1.7,0-3.1-1.4-3.1-3.1
	s1.4-3.1,3.1-3.1C153,171.7,153.1,171.7,153.1,171.7z M132.6,167.3l5.1-3.6c1.5,2.1,3.3,3.8,5.5,5.1l-3.6,5.1
	C136.9,172.2,134.5,170,132.6,167.3z M141.4,174.6c-1.7,0-3.1-1.4-3.1-3.1s1.4-3.1,3.1-3.1s3.1,1.4,3.1,3.1S143.2,174.6,141.4,174.6
	z M135.2,168.8c-1.7,0-3.1-1.4-3.1-3.1s1.4-3.1,3.1-3.1s3.1,1.4,3.1,3.1S136.9,168.8,135.2,168.8z"/>
</svg>
