<?xml version="1.0" encoding="utf-8"?>
<!-- Generator: Adobe Illustrator 21.0.0, SVG Export Plug-In . SVG Version: 6.00 Build 0)  -->
<svg version="1.1" id="图层_1" xmlns="http://www.w3.org/2000/svg" xmlns:xlink="http://www.w3.org/1999/xlink" x="0px" y="0px"
	 viewBox="0 0 200 200" style="enable-background:new 0 0 200 200;" xml:space="preserve">
<style type="text/css">
	.st0{fill:#FFAA00;}
</style>
<path class="st0" d="M193.8,125c3.5,0,6.3,2.8,6.3,6.3v62.5c0,3.5-2.8,6.3-6.3,6.3H6.3c-3.5,0-6.3-2.8-6.3-6.3v-62.5
	c0-3.5,2.8-6.3,6.3-6.3h40.6c0,29.3,23.8,53.1,53.1,53.1s53.1-23.8,53.1-53.1H193.8z"/>
<path class="st0" d="M119.5,25c2.1,0,3.2,1.1,3.2,3.2c0,2.1-1.1,3.2-3.2,3.2l-2.8,0v41.8l21,49.8c5.4,12.8,1.7,27.6-9,36.3
	c-7.7,6.3-17.2,9.4-28.6,9.4c-12.4,0-22.7-3.7-30.6-11.1c-9.3-8.6-12.4-22-8-33.8l19-50.6V31.4h-2.9c-2.1,0-3.2-1.1-3.2-3.2
	c0-2.1,1.1-3.2,3.2-3.2H119.5z M85.6,117.5H72.7v35.6h5.4v-13.9h8.2c3.7-0.1,6.4-1.2,8.4-3.5c1.8-2,2.8-4.5,2.8-7.2
	c0-1.8-0.3-3.5-1.1-5.1c-0.6-1.4-1.5-2.5-2.7-3.4c-1.2-1-2.5-1.7-3.9-2.1C88.3,117.7,87,117.5,85.6,117.5L85.6,117.5z M107.8,117.5
	h-5.4v35.6h5.4v-15.5h14.1v15.5h5.4v-35.6h-5.4v15.3h-14.1V117.5z M85.9,122.6c1.4-0.1,2.7,0.3,3.8,1c0.7,0.4,1.3,1,1.7,1.7
	c0.4,1,0.6,2,0.6,3c0,1.4-0.5,2.8-1.4,3.9c-1,1.2-2.5,1.8-4.5,1.8h-8v-11.5H85.9z"/>
</svg>
