<?xml version="1.0" standalone="no"?><!DOCTYPE svg PUBLIC "-//W3C//DTD SVG 1.1//EN" "http://www.w3.org/Graphics/SVG/1.1/DTD/svg11.dtd"><svg t="1609756061702" class="icon" viewBox="0 0 1024 1024" version="1.1" xmlns="http://www.w3.org/2000/svg" p-id="1230" xmlns:xlink="http://www.w3.org/1999/xlink" width="200" height="200"><defs><style type="text/css"></style></defs><path d="M419.8 379.42l-1.15 1.98c1.49-0.52 2.94-1.18 4.36-1.98h-3.21zM484 450.51h14.75l-18.03-31.23-11.34 19.64A21.43 21.43 0 0 1 484 450.51zM467.09 442.9l-4.39 7.61h16.34c-2.64-4.05-6.95-6.92-11.95-7.61z" fill="#FFFFFF" p-id="1231"></path><path d="M512 225.91c16.66 0 30.17-13.51 30.17-30.17V99.2c0-16.66-13.51-30.17-30.17-30.17-16.66 0-30.17 13.51-30.17 30.17v96.54c0 16.66 13.51 30.17 30.17 30.17z m0 0M268.76 308.99a30.076 30.076 0 0 0 21.33 8.84c7.72 0 15.45-2.95 21.33-8.84 11.78-11.78 11.78-30.88 0-42.66l-68.26-68.26c-11.79-11.78-30.89-11.78-42.67 0-11.78 11.79-11.78 30.88 0 42.67l68.27 68.25z m0 0M101.64 539.74h96.54c16.66 0 30.17-13.51 30.17-30.17 0-16.66-13.51-30.17-30.17-30.17h-96.54c-16.66 0-30.17 13.51-30.17 30.17 0 16.66 13.51 30.17 30.17 30.17z m0 0M795.66 509.57c0 16.66 13.51 30.17 30.17 30.17h96.54c16.66 0 30.17-13.51 30.17-30.17 0-16.66-13.51-30.17-30.17-30.17h-96.54c-16.66-0.01-30.17 13.5-30.17 30.17z m0 0M733.91 317.83c7.72 0 15.44-2.95 21.33-8.84l68.26-68.26c11.78-11.79 11.78-30.89 0-42.67-11.78-11.78-30.88-11.78-42.66 0l-68.26 68.26c-11.78 11.78-11.78 30.88 0 42.66 5.89 5.9 13.61 8.85 21.33 8.85z m0 0" fill="#FFCC00" p-id="1232"></path><path d="M903.66 678.1c-23.17-23.65-52.4-39.44-84.25-45.88-4.54-49.88-24.16-97.05-56.51-135.57-0.25-4.88-0.68-9.73-1.2-14.56-6.18-1.29-11.86-4.98-15.46-11.66-0.04-0.08-0.1-0.17-0.14-0.25-5.91-0.52-10.57-2.83-14.07-6.15-6.18-2-10.56-6.25-13.19-11.44-1.54-0.78-2.97-1.67-4.24-2.73-6.81-0.91-11.93-4.21-15.35-8.75-4.68-0.99-8.51-3.14-11.42-6.07 0.25 0.57 0.52 1.13 0.76 1.71-4.53-2.37-9.14-4.61-13.84-6.71-31.69-14.17-65.48-21.36-100.44-21.36-90.98 0-173.3 50.01-215.93 127.88-10.91-5.9-22.75-9.98-35.1-12.15-4.03 1.09-8.54 1.31-13.44 0.48-5.68-0.96-10.66-1.72-15.57-2.92-7.31 0.73-14.48 2.92-21.93 2.66-2.93 2.17-6.54 3.67-10.8 4.24 0.02 0.41 0.04 0.82 0.08 1.23-16.85 6.36-32.12 16.61-44.58 30.14-19.25 20.9-30.12 47.87-30.8 76.21a163.476 163.476 0 0 0-71.82 47.43A163.192 163.192 0 0 0 73.8 791.66c0 90.05 73.32 163.31 163.45 163.31h550.14c42.98 0 83.66-16.9 114.56-47.59 31.11-30.91 48.25-71.88 48.25-115.36 0-42.83-16.54-83.29-46.54-113.92z m-44.24 186.47c-19.51 19.38-45.09 30.06-72.03 30.06H237.25c-56.86 0-103.11-46.19-103.11-102.97 0-51.21 38.17-95.05 88.79-101.99a30.163 30.163 0 0 0 20.84-12.9c4.81-7.06 6.4-15.82 4.38-24.11-1.06-4.4-1.61-8.9-1.61-13.38 0-14.18 5.28-27.73 14.88-38.15 9.54-10.37 22.48-16.75 36.44-17.97 0.02 0 0.04-0.01 0.07-0.01h0.05c1.57-0.14 3.22-0.22 4.91-0.22 17.02 0 32.97 7.58 43.73 20.8a30.18 30.18 0 0 0 51.93-9.26c25.75-75.03 96.38-125.43 175.76-125.43 26.42 0 51.92 5.42 75.8 16.1 23.09 10.33 43.55 25.04 60.79 43.72l0.01 0.01c31.72 34.38 49.19 79.07 49.19 125.86 0 0.92 0.02 1.82 0.05 2.71 0.01 0.38 0.02 0.75 0.02 1.13-0.33 16.58 12.78 30.32 29.35 30.77 26.94 0.73 52.18 11.73 71.04 30.99 18.89 19.28 29.3 44.74 29.3 71.7-0.01 27.28-10.81 53.05-30.44 72.54z" fill="#1088FF" p-id="1233"></path></svg>