<?xml version="1.0" standalone="no"?><!DOCTYPE svg PUBLIC "-//W3C//DTD SVG 1.1//EN" "http://www.w3.org/Graphics/SVG/1.1/DTD/svg11.dtd"><svg t="1609758537213" class="icon" viewBox="0 0 1024 1024" version="1.1" xmlns="http://www.w3.org/2000/svg" p-id="7478" xmlns:xlink="http://www.w3.org/1999/xlink" width="200" height="200"><defs><style type="text/css"></style></defs><path d="M713.4 155.7c-67.6 0-127.7 36.2-166.8 92.7-24.8-37.8-64-62.3-108.3-62.3-67.1 0-122.7 56.1-133.5 129.6h-51.9c-79.2 0-143.3 73.7-143.3 164.6s64.2 164.6 143.3 164.6h460.5c117.6 0 213-109.4 213-244.4-0.1-135.4-95.4-244.8-213-244.8z" fill="#0061b0" p-id="7479"></path><path d="M713.4 128.5c-63.2 0-122.6 28.5-166.8 78.9-29.3-31.2-67.4-48.6-108.3-48.6-71.3 0-132.6 53.3-152.6 129.6h-32.9c-92.3 0-167.4 86.1-167.4 191.8s75.1 191.7 167.4 191.7h460.5c130.7 0 237-121.8 237-271.6 0.1-150-106.2-271.8-236.9-271.8z m0 488.9H252.9c-65.8 0-119.4-61.7-119.4-137.4S187 342.6 252.9 342.6h51.9c11.8 0 21.7-9.6 23.7-22.7 9-61.9 55.3-106.9 109.8-106.9 35.3 0 67.7 18.7 89 51.4 4.5 6.8 11.5 10.9 19 11 7.1 0 14.6-3.7 19.2-10.4 36.2-52.3 90-82.2 147.8-82.2 104.2 0 189 97.5 189 217.3 0.1 119.8-84.7 217.3-188.9 217.3zM234.8 734.3l-142.4 163c-9.4 10.6-9.3 27.9 0.2 38.4 4.6 5.2 10.8 7.9 16.9 7.9 6.2 0 12.4-2.7 17.1-8.1l142.4-163c9.4-10.6 9.3-27.9-0.2-38.4-9.5-10.7-24.7-10.6-34 0.2z m221.3-0.3c-9.5-10.5-24.6-10.4-34 0.2L351 815.7c-9.4 10.6-9.3 27.9 0.2 38.4 4.6 5.2 10.8 7.9 16.9 7.9 6.2 0 12.4-2.7 17.1-8.1l71.1-81.4c9.4-10.8 9.3-27.9-0.2-38.5z m343.7 0.3l-71.1 81.4c-9.4 10.6-9.3 27.9 0.2 38.4 4.6 5.2 10.8 7.9 16.9 7.9 6.2 0 12.4-2.7 17.1-8.1l71.1-81.4c9.4-10.6 9.3-27.9-0.2-38.4-9.5-10.7-24.7-10.6-34 0.2z m-187.2 0l-142.4 163c-9.4 10.6-9.3 27.9 0.2 38.4 4.6 5.2 10.8 7.9 16.9 7.9 6.2 0 12.4-2.7 17.1-8.1l142.3-163c9.4-10.6 9.3-27.9-0.2-38.4-9.4-10.7-24.6-10.6-33.9 0.2z" fill="#0061b0" p-id="7480"></path></svg>