<?xml version="1.0" standalone="no"?><!DOCTYPE svg PUBLIC "-//W3C//DTD SVG 1.1//EN" "http://www.w3.org/Graphics/SVG/1.1/DTD/svg11.dtd"><svg t="1609758229377" class="icon" viewBox="0 0 1024 1024" version="1.1" xmlns="http://www.w3.org/2000/svg" p-id="6649" xmlns:xlink="http://www.w3.org/1999/xlink" width="200" height="200"><defs><style type="text/css"></style></defs><path d="M100.1 418.63h330.1c84.51 0 153.26-68.76 153.26-153.26S514.71 112.11 430.2 112.11c-54.34 0-103.48 28.28-131.43 75.65-9.92 16.82-4.33 38.51 12.5 48.44 16.81 9.91 38.48 4.38 48.42-12.49 15.08-25.58 41.45-40.86 70.51-40.86 45.5 0 82.53 37.03 82.53 82.53S475.7 347.9 430.2 347.9H100.1c-19.45 0-35.37 15.92-35.37 35.37 0 19.45 15.91 35.36 35.37 35.36z" p-id="6650" fill="#3f81c1"></path><path d="M795.68 244.12c-54.25 0-105.02 26.96-135.79 72.13-11.01 16.14-6.84 38.14 9.3 49.15 16.12 10.95 38.15 6.85 49.14-9.31 17.59-25.81 46.51-41.23 77.35-41.23 52.02 0 94.32 42.31 94.32 94.32 0 52.02-42.3 94.32-94.32 94.32-2.03 0-3.99 0.27-5.92 0.6-1.92-0.33-3.86-0.6-5.87-0.6H100.1c-19.45 0-35.37 15.92-35.37 35.37s15.92 35.37 35.37 35.37h683.79c2.01 0 3.95-0.27 5.87-0.6 1.93 0.33 3.89 0.6 5.91 0.6 91 0 165.05-74.05 165.05-165.05 0.01-91.03-74.04-165.07-165.04-165.07zM863.97 791.05c1.52-3.94 2.45-8.17 2.45-12.62 0-4.46-0.92-8.69-2.45-12.62-0.12-0.31-0.16-0.63-0.29-0.94-1.7-4.07-4.18-7.72-7.19-10.86-0.17-0.18-0.21-0.41-0.39-0.58L756.06 653.38c-13.76-13.76-36.26-13.76-50.02 0-13.76 13.76-13.76 36.26 0 50.02l39.66 39.66H185.44l39.66-39.66c13.76-13.76 13.76-36.26 0-50.02-13.76-13.76-36.26-13.76-50.02 0L75.04 753.42c-0.17 0.17-0.22 0.42-0.39 0.59-3.01 3.13-5.48 6.79-7.18 10.85-0.13 0.32-0.18 0.64-0.3 0.95-1.52 3.93-2.44 8.16-2.44 12.61 0 4.45 0.92 8.68 2.44 12.61 0.12 0.32 0.17 0.64 0.3 0.95 1.7 4.06 4.17 7.71 7.18 10.84 0.17 0.18 0.22 0.42 0.4 0.6l100.04 100.04c13.76 13.76 36.26 13.76 50.02 0 13.76-13.76 13.76-36.26 0-50.02l-39.66-39.66H745.7l-39.66 39.66c-13.76 13.76-13.76 36.26 0 50.02 13.76 13.76 36.26 13.76 50.02 0L856.1 803.42c0.17-0.17 0.22-0.41 0.39-0.59 3.01-3.14 5.49-6.79 7.19-10.86 0.12-0.29 0.17-0.61 0.29-0.92z" p-id="6651" fill="#3f81c1"></path></svg>