<?xml version="1.0" standalone="no"?><!DOCTYPE svg PUBLIC "-//W3C//DTD SVG 1.1//EN" "http://www.w3.org/Graphics/SVG/1.1/DTD/svg11.dtd"><svg t="1609756875054" class="icon" viewBox="0 0 1024 1024" version="1.1" xmlns="http://www.w3.org/2000/svg" p-id="5852" xmlns:xlink="http://www.w3.org/1999/xlink" width="200" height="200"><defs><style type="text/css"></style></defs><path d="M651.867 647.752l-556.679 0c-14.129 0-25.583 11.454-25.583 25.583s11.454 25.583 25.583 25.583l556.679 0c46.834 0 84.934 38.101 84.934 84.934s-38.101 84.934-84.934 84.934c-33.481 0-63.94-19.761-77.601-50.342-5.761-12.9-20.895-18.687-33.792-12.924-12.9 5.762-18.687 20.892-12.924 33.792 21.881 48.987 70.679 80.64 124.317 80.64 75.046 0 136.1-61.054 136.1-136.1s-61.054-136.1-136.1-136.1zM791.036 217.964c-73.947 0-138.056 50.057-155.904 121.731-3.415 13.71 4.932 27.591 18.643 31.006 13.711 3.411 27.591-4.932 31.006-18.644 12.159-48.827 55.852-82.929 106.255-82.929 60.375 0 109.494 49.119 109.494 109.494s-49.119 109.494-109.494 109.494l-695.848 0c-14.129 0-25.583 11.454-25.583 25.583s11.454 25.583 25.583 25.583l695.848 0c88.588 0 160.659-72.071 160.659-160.659s-72.07-160.659-160.659-160.659zM95.189 379.647l335.644 0c0.69 0 1.37-0.035 2.047-0.089 0.676 0.053 1.357 0.089 2.047 0.089 75.045 0 136.1-61.055 136.1-136.1s-61.054-136.1-136.1-136.1c-53.64 0-102.438 31.654-124.318 80.642-5.762 12.9 0.025 28.029 12.925 33.792 12.9 5.761 28.029-0.025 33.792-12.925 13.659-30.582 44.119-50.342 77.6-50.342 46.833 0 84.934 38.101 84.934 84.934s-38.101 84.934-84.934 84.934c-0.69 0-1.37 0.035-2.047 0.089-0.676-0.053-1.357-0.089-2.047-0.089l-335.644 0c-14.129 0-25.583 11.454-25.583 25.583s11.455 25.582 25.584 25.582z" p-id="5853" fill="#87a7d6"></path></svg>